<?xml version="1.0" encoding="UTF-8"?>
<svg id="Layer_2" data-name="Layer 2" xmlns="http://www.w3.org/2000/svg" xmlns:xlink="http://www.w3.org/1999/xlink" viewBox="0 0 600 628.55">
  <defs>
    <style>
      .cls-1 {
        fill: url(#linear-gradient-2);
      }

      .cls-2 {
        fill: #254159;
      }

      .cls-3 {
        fill: url(#linear-gradient-5);
      }

      .cls-4 {
        fill: url(#linear-gradient-3);
      }

      .cls-5 {
        fill: url(#linear-gradient);
      }

      .cls-6 {
        fill: url(#linear-gradient-4);
      }
    </style>
    <linearGradient id="linear-gradient" x1="419.32" y1="-46.26" x2="-35.49" y2="519.29" gradientUnits="userSpaceOnUse">
      <stop offset=".08" stop-color="#86abcf"/>
      <stop offset=".51" stop-color="#254159"/>
      <stop offset="1" stop-color="#0d1e2e"/>
    </linearGradient>
    <linearGradient id="linear-gradient-2" x1="395.34" y1="-113.31" x2="-96.9" y2="498.77" gradientTransform="translate(58.22 684.18) rotate(180)" xlink:href="#linear-gradient"/>
    <linearGradient id="linear-gradient-3" x1="478.72" y1="-18.2" x2="11.15" y2="563.22" xlink:href="#linear-gradient"/>
    <linearGradient id="linear-gradient-4" x1="712.59" y1="201.04" x2="226.95" y2="804.93" gradientTransform="translate(433.04 -294.88) rotate(45)" gradientUnits="userSpaceOnUse">
      <stop offset="0" stop-color="#86abcf"/>
      <stop offset=".51" stop-color="#254159"/>
      <stop offset="1" stop-color="#0d1e2e"/>
    </linearGradient>
    <linearGradient id="linear-gradient-5" x1="627.18" y1="122.64" x2="176.58" y2="682.96" gradientTransform="matrix(1,0,0,1,0,0)" xlink:href="#linear-gradient-4"/>
  </defs>
  <g id="Layer_1-2" data-name="Layer 1">
    <g>
      <g>
        <path class="cls-5" d="m169.71,373.44v-146.29c0-13.03-8.6-24.7-21.2-28.02-19.48-5.14-37.02,9.42-37.02,28.07v146.24c0,16.08,13.03,29.11,29.11,29.11h0c16.08,0,29.11-13.03,29.11-29.11Z"/>
        <rect class="cls-1" x="0" y="281.62" width="58.22" height="120.93" rx="27.32" ry="27.32" transform="translate(58.22 684.18) rotate(-180)"/>
        <path class="cls-4" d="m287.67,369.09v-112.95c0-11.15,9.04-20.19,20.19-20.19h0c11.15,0,20.19,9.04,20.19,20.19v119.04c0,15.12,12.26,27.38,27.38,27.38h0c15.12,0,27.38-12.26,27.38-27.38V127.69c0-16.08-13.03-29.11-29.11-29.11h0c-16.08,0-29.11,13.03-29.11,29.11v42.62c0,12.6-10.22,22.82-22.82,22.82h0c-12.6,0-22.82-10.22-22.82-22.82V23.73c0-6.34-2.97-12.33-8.04-16.13-23.94-17.97-50.18-1.29-50.18,21.52v339.98c0,18.48,14.98,33.47,33.47,33.47h0c18.48,0,33.47-14.98,33.47-33.47Z"/>
        <circle class="cls-6" cx="572.47" cy="375.28" r="27.27" transform="translate(-97.69 514.71) rotate(-45)"/>
        <rect class="cls-3" x="434.18" y="250.31" width="58.22" height="152.24" rx="27.32" ry="27.32"/>
      </g>
      <g>
        <path class="cls-2" d="m61.71,579.28H28.53l-5.32,15.71H.54l32.17-88.91h25.08l32.17,88.91h-22.92l-5.32-15.71Zm-5.57-16.72l-11.02-32.55-10.89,32.55h21.91Z"/>
        <path class="cls-2" d="m169.5,524.31v70.67h-21.66v-9.63c-2.2,3.12-5.17,5.64-8.93,7.54-3.76,1.9-7.92,2.85-12.48,2.85-5.4,0-10.18-1.2-14.31-3.61-4.14-2.41-7.35-5.89-9.63-10.45s-3.42-9.92-3.42-16.08v-41.29h21.53v38.38c0,4.73,1.22,8.4,3.67,11.02,2.45,2.62,5.74,3.93,9.88,3.93s7.56-1.31,10.01-3.93c2.45-2.62,3.67-6.29,3.67-11.02v-38.38h21.66Z"/>
        <path class="cls-2" d="m184.89,540.4c2.74-5.49,6.48-9.71,11.21-12.67,4.73-2.95,10.01-4.43,15.83-4.43,4.64,0,8.89.97,12.73,2.91,3.84,1.94,6.86,4.56,9.06,7.85v-32.8h21.66v93.73h-21.66v-10.13c-2.03,3.38-4.92,6.08-8.68,8.11-3.76,2.03-8.13,3.04-13.11,3.04-5.83,0-11.1-1.5-15.83-4.5-4.73-3-8.47-7.26-11.21-12.79-2.74-5.53-4.12-11.93-4.12-19.19s1.37-13.64,4.12-19.13Zm44.33,6.46c-3-3.12-6.65-4.69-10.96-4.69s-7.96,1.54-10.95,4.62c-3,3.08-4.5,7.33-4.5,12.73s1.5,9.69,4.5,12.86c3,3.17,6.65,4.75,10.95,4.75s7.96-1.56,10.96-4.69c3-3.12,4.5-7.39,4.5-12.79s-1.5-9.67-4.5-12.79Z"/>
        <path class="cls-2" d="m272.66,513.61c-2.41-2.24-3.61-5-3.61-8.3s1.2-6.19,3.61-8.42c2.41-2.24,5.51-3.36,9.31-3.36s6.78,1.12,9.18,3.36c2.41,2.24,3.61,5.05,3.61,8.42s-1.2,6.06-3.61,8.3c-2.41,2.24-5.47,3.36-9.18,3.36s-6.9-1.12-9.31-3.36Zm20.08,10.7v70.67h-21.66v-70.67h21.66Z"/>
        <path class="cls-2" d="m320.72,592.83c-4.81-2.11-8.61-5-11.4-8.68s-4.35-7.79-4.69-12.35h21.41c.25,2.45,1.39,4.43,3.42,5.95,2.03,1.52,4.52,2.28,7.47,2.28,2.7,0,4.79-.53,6.27-1.58,1.48-1.05,2.22-2.43,2.22-4.12,0-2.03-1.06-3.53-3.17-4.5-2.11-.97-5.53-2.05-10.26-3.23-5.07-1.18-9.29-2.43-12.67-3.74-3.38-1.31-6.29-3.38-8.74-6.21-2.45-2.83-3.67-6.65-3.67-11.46,0-4.05,1.12-7.75,3.36-11.08,2.24-3.33,5.53-5.97,9.88-7.92,4.35-1.94,9.52-2.91,15.52-2.91,8.87,0,15.85,2.2,20.96,6.59,5.11,4.39,8.04,10.22,8.8,17.48h-20.01c-.34-2.45-1.42-4.39-3.23-5.83-1.82-1.43-4.2-2.15-7.16-2.15-2.53,0-4.48.49-5.83,1.46-1.35.97-2.03,2.3-2.03,3.99,0,2.03,1.08,3.55,3.23,4.56,2.15,1.01,5.51,2.03,10.07,3.04,5.23,1.35,9.5,2.68,12.79,3.99,3.29,1.31,6.18,3.42,8.68,6.33,2.49,2.91,3.78,6.82,3.86,11.72,0,4.14-1.16,7.83-3.48,11.08-2.32,3.25-5.66,5.81-10.01,7.66-4.35,1.86-9.39,2.79-15.14,2.79-6.16,0-11.65-1.06-16.46-3.17Z"/>
        <path class="cls-2" d="m391.4,592.83c-4.81-2.11-8.61-5-11.4-8.68s-4.35-7.79-4.69-12.35h21.41c.25,2.45,1.39,4.43,3.42,5.95,2.03,1.52,4.52,2.28,7.47,2.28,2.7,0,4.79-.53,6.27-1.58,1.48-1.05,2.22-2.43,2.22-4.12,0-2.03-1.06-3.53-3.17-4.5-2.11-.97-5.53-2.05-10.26-3.23-5.07-1.18-9.29-2.43-12.67-3.74-3.38-1.31-6.29-3.38-8.74-6.21-2.45-2.83-3.67-6.65-3.67-11.46,0-4.05,1.12-7.75,3.36-11.08,2.24-3.33,5.53-5.97,9.88-7.92,4.35-1.94,9.52-2.91,15.52-2.91,8.87,0,15.85,2.2,20.96,6.59,5.11,4.39,8.04,10.22,8.8,17.48h-20.01c-.34-2.45-1.42-4.39-3.23-5.83-1.82-1.43-4.2-2.15-7.16-2.15-2.53,0-4.48.49-5.83,1.46-1.35.97-2.03,2.3-2.03,3.99,0,2.03,1.08,3.55,3.23,4.56,2.15,1.01,5.51,2.03,10.07,3.04,5.23,1.35,9.5,2.68,12.79,3.99,3.29,1.31,6.18,3.42,8.68,6.33,2.49,2.91,3.78,6.82,3.86,11.72,0,4.14-1.16,7.83-3.48,11.08-2.32,3.25-5.66,5.81-10.01,7.66-4.35,1.86-9.39,2.79-15.14,2.79-6.16,0-11.65-1.06-16.46-3.17Z"/>
        <path class="cls-2" d="m516.03,564.84h-49.02c.34,4.39,1.75,7.75,4.24,10.07,2.49,2.32,5.55,3.48,9.18,3.48,5.4,0,9.16-2.28,11.27-6.84h23.05c-1.18,4.64-3.31,8.82-6.4,12.54-3.08,3.72-6.95,6.63-11.59,8.74-4.65,2.11-9.84,3.17-15.58,3.17-6.92,0-13.09-1.48-18.49-4.43-5.4-2.96-9.63-7.18-12.67-12.67-3.04-5.49-4.56-11.9-4.56-19.25s1.5-13.76,4.5-19.25c3-5.49,7.2-9.71,12.6-12.67,5.4-2.95,11.61-4.43,18.62-4.43s12.92,1.44,18.24,4.31c5.32,2.87,9.48,6.97,12.48,12.29,3,5.32,4.5,11.53,4.5,18.62,0,2.03-.13,4.14-.38,6.33Zm-21.78-12.03c0-3.71-1.27-6.67-3.8-8.87-2.53-2.2-5.7-3.29-9.5-3.29s-6.69,1.06-9.18,3.17c-2.49,2.11-4.03,5.11-4.62,8.99h27.11Z"/>
        <path class="cls-2" d="m600,524.31l-44.33,104.24h-23.3l16.21-35.97-28.75-68.27h24.19l16.34,44.2,16.21-44.2h23.43Z"/>
      </g>
    </g>
  </g>
</svg>